STARTFONT 2.1
COMMENT
COMMENT Converted from OpenType font "Font 90 Icons.ttf" by "otf2bdf 3.0".
COMMENT
FONT -FreeType-Font 90 Icons-Medium-R-Normal--21-150-100-100-P-80-ISO10646-1
SIZE 15 100 100
FONTBOUNDINGBOX 23 21 0 -4
STARTPROPERTIES 19
FOUNDRY "FreeType"
FAMILY_NAME "Font 90 Icons"
WEIGHT_NAME "Medium"
SLANT "R"
SETWIDTH_NAME "Normal"
ADD_STYLE_NAME ""
PIXEL_SIZE 21
POINT_SIZE 150
RESOLUTION_X 100
RESOLUTION_Y 100
SPACING "P"
AVERAGE_WIDTH 80
CHARSET_REGISTRY "ISO10646"
CHARSET_ENCODING "1"
FONT_ASCENT 17
FONT_DESCENT 4
COPYRIGHT "Typeface © (el-harrak.blogspot.com). <darrati10@gmail.com>. All Rights Reserved"
_OTF_FONTFILE "Font 90 Icons.ttf"
_OTF_PSNAME "Font 90 Icons"
ENDPROPERTIES
CHARS 242
STARTCHAR 0000
ENCODING 0
SWIDTH 0 0
DWIDTH 0 0
BBX 0 0 0 0
BITMAP
ENDCHAR
STARTCHAR 001D
ENCODING 29
SWIDTH 0 0
DWIDTH 0 0
BBX 0 0 0 0
BITMAP
ENDCHAR
STARTCHAR 0020
ENCODING 32
SWIDTH 240 0
DWIDTH 5 0
BBX 0 0 0 0
BITMAP
ENDCHAR
STARTCHAR 0021
ENCODING 33
SWIDTH 1008 0
DWIDTH 21 0
BBX 20 20 0 -3
BITMAP
00F800
07FE00
0FFD80
1FFE40
3F9E20
7F8E20
7F9E10
7FFE10
FFFC10
FFF810
FF8010
FE0010
FC0010
7C0010
7C6010
3C7020
3C0040
1C0080
0E0100
03FE00
ENDCHAR
STARTCHAR 0022
ENCODING 34
SWIDTH 1008 0
DWIDTH 21 0
BBX 20 16 0 -1
BITMAP
01F800
010400
010400
7FFFF0
FFFFF0
FFFFF0
FFFFF0
FFFFF0
FFFFF0
FFFFF0
FFFFF0
FFFFF0
FFFFF0
FFFFF0
FFFFF0
FFFFF0
ENDCHAR
STARTCHAR 0023
ENCODING 35
SWIDTH 1008 0
DWIDTH 21 0
BBX 19 21 1 -4
BITMAP
4FE000
DFFC80
DFFF80
DFFFC0
FFFFC0
7FFFC0
6FFFC0
6FFFC0
6FFFC0
6FBFE0
7C03E0
3000E0
300000
300000
300000
380000
180000
180000
180000
180000
180000
ENDCHAR
STARTCHAR 0024
ENCODING 36
SWIDTH 1008 0
DWIDTH 21 0
BBX 20 20 0 -3
BITMAP
180000
3C0000
7E0000
FF0000
FF8000
7FC000
3FF000
1FF800
0FF000
07E000
07E000
039000
010800
000400
000200
000100
000080
000040
000020
000010
ENDCHAR
STARTCHAR 0025
ENCODING 37
SWIDTH 1008 0
DWIDTH 21 0
BBX 19 21 1 -4
BITMAP
00E000
01E000
07F800
0FFE00
FEDFC0
FCC7E0
F8C7E0
7C4FC0
7E5FC0
61F1C0
61E1C0
63F9C0
7E4FC0
FC47C0
F8C3E0
FCC7E0
5FFF40
0FFC00
03F000
00E000
00E000
ENDCHAR
STARTCHAR 0026
ENCODING 38
SWIDTH 1008 0
DWIDTH 21 0
BBX 20 20 0 -3
BITMAP
00F800
078E00
0C0180
19F8C0
23FE60
67FF20
4DFFB0
5EFB90
DF7790
9FAFD0
9FDFD0
9FDFD0
DFFF90
4FFF90
4FFF20
27FF60
33FC40
18F180
0E0300
03FC00
ENDCHAR
STARTCHAR 0027
ENCODING 39
SWIDTH 1008 0
DWIDTH 21 0
BBX 20 21 0 -4
BITMAP
03C000
0FF000
3FFC00
3C3E00
799E00
718F00
E18700
EFF700
EFF700
E18700
718F00
799E00
3C3F00
3FFF80
0FFFC0
03EFE0
0007F0
0003F0
0001F0
0000F0
000060
ENDCHAR
STARTCHAR 0028
ENCODING 40
SWIDTH 1008 0
DWIDTH 21 0
BBX 20 21 0 -4
BITMAP
07E000
1FF800
3FFC00
3C3E00
780E00
700F00
E00700
EFF700
EFE700
E00700
700F00
781E00
3C3F00
3FFF80
0FFFC0
03CFE0
0007F0
0003F0
0001F0
0000F0
000040
ENDCHAR
STARTCHAR 0029
ENCODING 41
SWIDTH 1008 0
DWIDTH 21 0
BBX 20 15 0 -1
BITMAP
FFFFF0
E00030
B00070
9800D0
8C0190
860310
830610
818C10
82DE10
847310
880190
9000D0
A00070
C00030
FFFFF0
ENDCHAR
STARTCHAR 002A
ENCODING 42
SWIDTH 1008 0
DWIDTH 21 0
BBX 18 21 1 -4
BITMAP
00E000
00E000
00E000
00E000
00E000
0CEE00
0FFC00
07F800
7BF780
BDEFC0
DEDFC0
EF3FC0
F7FFC0
FBFFC0
FDFFC0
FEF7C0
FF3BC0
FFFDC0
FFFEC0
FFFF40
7FFF80
ENDCHAR
STARTCHAR 002B
ENCODING 43
SWIDTH 1008 0
DWIDTH 21 0
BBX 20 20 0 -3
BITMAP
FFFFF0
FFFFF0
FFFFF0
C1FC30
E3FE30
E1FC30
E9F8B0
FBFDF0
FFFFF0
FFFFF0
FFFFF0
FFFFF0
FFFFF0
F9FCB0
E0F830
E1FC30
E3FE30
C1F830
FFFFF0
FFFFF0
ENDCHAR
STARTCHAR 002C
ENCODING 44
SWIDTH 1008 0
DWIDTH 21 0
BBX 20 20 0 -3
BITMAP
000180
001FC0
003FE0
007F70
00FE30
01FF70
03FFF0
07FFF0
0FFFF0
1DFFE0
36FFC0
7B7F80
FDBF00
7EDE00
3F6C00
1FB800
0FF000
07E000
03C000
018000
ENDCHAR
STARTCHAR 002D
ENCODING 45
SWIDTH 1008 0
DWIDTH 21 0
BBX 20 20 0 -3
BITMAP
00F800
07FE00
0C0380
1800C0
380460
640C20
421C30
413C10
C3FC10
83FC10
83FC10
C3FC10
C3FC10
401C30
400E20
200560
3004C0
180180
0E0300
03FC00
ENDCHAR
STARTCHAR 002E
ENCODING 46
SWIDTH 1008 0
DWIDTH 21 0
BBX 17 21 2 -4
BITMAP
7FFF00
400100
400100
400100
400100
400100
400100
400100
400100
400100
7FFF00
000000
7FFF00
7FE300
7FFF00
7FFF00
008000
008000
07F000
07F000
FFFF80
ENDCHAR
STARTCHAR 002F
ENCODING 47
SWIDTH 1008 0
DWIDTH 21 0
BBX 20 21 0 -4
BITMAP
20F040
31F840
11FCC0
DBFC90
5BFC90
4BFDB0
4BFDB0
4BFDB0
6BFDB0
4BFDB0
4BFDB0
4BFDB0
DBFC90
D9FC90
11F8C0
30F040
20F040
00F000
00F000
00F000
007000
ENDCHAR
STARTCHAR 0030
ENCODING 48
SWIDTH 1008 0
DWIDTH 21 0
BBX 20 20 0 -3
BITMAP
00F800
07FE00
0FFF80
1FFFC0
39FDE0
71F8E0
60F070
607070
E0F030
E09830
FF8FF0
FF9FF0
FFFFF0
7F0FF0
7F07E0
3E07E0
3E03C0
1E0780
0FFF00
03FE00
ENDCHAR
STARTCHAR 0031
ENCODING 49
SWIDTH 1008 0
DWIDTH 21 0
BBX 20 21 0 -4
BITMAP
00F000
00F000
02F200
0EF300
1EF380
3CF3C0
38F1E0
70F0E0
70F070
70F070
E0F070
E0F070
E00070
700070
7000F0
7800E0
3C01E0
1E07C0
0FFF80
07FF00
01FC00
ENDCHAR
STARTCHAR 0032
ENCODING 50
SWIDTH 1008 0
DWIDTH 21 0
BBX 19 21 1 -4
BITMAP
00E000
01E000
00E000
00E000
E0C0C0
F0C3E0
F8C7E0
7C4FC0
1EDE00
01F000
01E000
03F800
3E4F00
FC47C0
F8C3E0
F0C1E0
40E040
00E000
01E000
00E000
00E000
ENDCHAR
STARTCHAR 0033
ENCODING 51
SWIDTH 1008 0
DWIDTH 21 0
BBX 20 19 0 -3
BITMAP
002000
006000
007000
00F000
00F800
01F800
0FFF00
FFFFF0
3FFFE0
1FFFC0
0FFF80
07FF00
07FE00
07FF00
07FF00
07FF00
0F8F00
0E0300
080080
ENDCHAR
STARTCHAR 0034
ENCODING 52
SWIDTH 1008 0
DWIDTH 21 0
BBX 20 15 0 -1
BITMAP
7FFFE0
BFFFF0
DFFFF0
EFFFF0
F7FFF0
FBFFF0
FDFFF0
FEFBF0
FD7FF0
FB9FF0
F7FFF0
EFFFF0
DFFFF0
BFFFF0
7FFFE0
ENDCHAR
STARTCHAR 0035
ENCODING 53
SWIDTH 1008 0
DWIDTH 21 0
BBX 20 16 0 -2
BITMAP
006700
009F00
036700
04FB00
1BFC80
27FF40
DFFFB0
1FFF80
1FFF80
1F8F80
1F8F80
1F8F80
1F8F80
1F8F80
1F8F80
0F8F80
ENDCHAR
STARTCHAR 0036
ENCODING 54
SWIDTH 1008 0
DWIDTH 21 0
BBX 20 21 0 -4
BITMAP
1C0380
1C0380
1C0380
000000
7F0FC0
FF0FE0
FF0FA0
FF1FE0
FF1FF0
FF17D0
FF3FD0
FF0FE0
360FE0
361FE0
360680
360680
360680
360680
360680
360680
340280
ENDCHAR
STARTCHAR 0037
ENCODING 55
SWIDTH 1008 0
DWIDTH 21 0
BBX 20 15 0 -1
BITMAP
0FF000
1C3800
3C3C00
7C3E00
7C3E00
C7E200
C3C300
83C300
C7C300
FE7E00
7C3E00
7C3C00
3C3C10
1E7FF0
07E380
ENDCHAR
STARTCHAR 0038
ENCODING 56
SWIDTH 1008 0
DWIDTH 21 0
BBX 16 21 2 -4
BITMAP
FFFF
C003
C001
C001
C001
FFFF
FFFF
C633
C633
C633
FFFF
FFFF
C633
C633
FFFF
FFFF
C633
C633
C633
FFFF
7FFF
ENDCHAR
STARTCHAR 0039
ENCODING 57
SWIDTH 1008 0
DWIDTH 21 0
BBX 20 19 0 -3
BITMAP
C00000
600000
33FFF0
13FFF0
1BFFE0
0BFFE0
09FFC0
0DFFC0
0DFF80
0DFF80
040000
040000
07FFE0
07FFE0
000000
0701C0
0F01E0
0F01E0
0701C0
ENDCHAR
STARTCHAR 003A
ENCODING 58
SWIDTH 960 0
DWIDTH 20 0
BBX 20 20 0 -4
BITMAP
000700
001FC0
003FE0
007E30
007E30
007E70
007FF0
007FF0
00FFF0
01BFE0
039FC0
07CF80
0FF000
1FC000
3F8000
7F8000
FC0000
FC0000
F00000
700000
ENDCHAR
STARTCHAR 003B
ENCODING 59
SWIDTH 1008 0
DWIDTH 21 0
BBX 20 21 0 -4
BITMAP
002000
002000
002000
002000
002000
002000
002000
002000
002000
002000
FFFFF0
002000
002000
002000
002000
002000
002000
002000
002000
002000
002000
ENDCHAR
STARTCHAR 003C
ENCODING 60
SWIDTH 1008 0
DWIDTH 21 0
BBX 20 16 0 -1
BITMAP
002000
006000
007000
00F800
019800
018C00
030C00
030600
060700
0C0300
0C0180
180180
1800C0
3000E0
600060
E00030
ENDCHAR
STARTCHAR 003D
ENCODING 61
SWIDTH 1008 0
DWIDTH 21 0
BBX 20 20 0 -3
BITMAP
00F800
070600
080180
100040
27F060
431C20
430C10
830C10
830C10
831810
83E010
833010
833810
431810
430C20
230620
2CC140
100080
0C0300
03FC00
ENDCHAR
STARTCHAR 003E
ENCODING 62
SWIDTH 960 0
DWIDTH 20 0
BBX 20 20 0 -3
BITMAP
00F800
070600
080180
1000C0
20FE40
430220
460210
8C0110
8C0010
8C0010
8C0010
8C0010
8C0010
460110
460220
238420
20F840
100080
0C0300
03FC00
ENDCHAR
STARTCHAR 003F
ENCODING 63
SWIDTH 1008 0
DWIDTH 21 0
BBX 20 20 0 -3
BITMAP
00F000
07FE00
0FFF80
1C03C0
3801C0
7000E0
600070
600030
E00030
C00030
C00030
C00030
E00030
600070
700060
3000E0
3801C0
1E0780
0FFF00
03FE00
ENDCHAR
STARTCHAR 0040
ENCODING 64
SWIDTH 1008 0
DWIDTH 21 0
BBX 20 20 0 -3
BITMAP
002000
002000
006000
007000
00F000
00F800
01F800
01FC00
03FC00
03FE00
07FE00
07FF00
0FFF00
0FFF80
1FFF80
1FFFC0
3FFFC0
3FFFE0
7FFFE0
FFFFF0
ENDCHAR
STARTCHAR 0041
ENCODING 65
SWIDTH 1008 0
DWIDTH 21 0
BBX 20 19 0 -3
BITMAP
818000
E1C000
F1E000
F9F800
FEFC00
FF7E00
FFBF80
FFEFC0
FFF7E0
FFFBF0
FFEFE0
FFDF80
FFBF00
FEFE00
FDF800
F9F000
F1E000
C18000
810000
ENDCHAR
STARTCHAR 0042
ENCODING 66
SWIDTH 1008 0
DWIDTH 21 0
BBX 18 21 1 -4
BITMAP
C003C0
F003C0
F803C0
FE03C0
FF83C0
FFC3C0
FFF3C0
FFFBC0
FFFFC0
FFFFC0
FFFFC0
FFFFC0
FFFFC0
FFFBC0
FFE3C0
FFC3C0
FF03C0
FC03C0
F803C0
E003C0
8003C0
ENDCHAR
STARTCHAR 0043
ENCODING 67
SWIDTH 1008 0
DWIDTH 21 0
BBX 15 21 3 -4
BITMAP
FCFE
FCFE
FCFE
FCFE
FCFE
FCFE
FCFE
FCFE
FCFE
FCFE
FCFE
FCFE
FCFE
FCFE
FCFE
FCFE
FCFE
FCFE
FCFE
FCFE
FCFE
ENDCHAR
STARTCHAR 0044
ENCODING 68
SWIDTH 1008 0
DWIDTH 21 0
BBX 18 21 1 -4
BITMAP
C00000
F00000
F80000
FE0000
FF0000
FFC000
FFF000
FFF800
FFFE00
FFFF80
FFFFC0
FFFF00
FFFE00
FFF800
FFE000
FFC000
FF0000
FC0000
F80000
E00000
800000
ENDCHAR
STARTCHAR 0045
ENCODING 69
SWIDTH 1008 0
DWIDTH 21 0
BBX 20 20 0 -3
BITMAP
00F000
07FE00
0FFF80
1FFFC0
3FFFC0
7FFFE0
7F07F0
7E03F0
FC03F0
FC01F0
FC01F0
FC01F0
FC03F0
7E07F0
7F8FE0
3FFFE0
3FFFC0
1FFF80
0FFF00
03FC00
ENDCHAR
STARTCHAR 0046
ENCODING 70
SWIDTH 1008 0
DWIDTH 21 0
BBX 20 20 0 -3
BITMAP
FFFFF0
FFFFF0
FFFFF0
FFFFF0
FFFFF0
FFFFF0
FFFFF0
FFFFF0
FFFFF0
FFFFF0
FFFFF0
FFFFF0
FFFFF0
FFFFF0
FFFFF0
FFFFF0
FFFFF0
FFFFF0
FFFFF0
FFFFF0
ENDCHAR
STARTCHAR 0047
ENCODING 71
SWIDTH 1008 0
DWIDTH 21 0
BBX 18 21 1 -4
BITMAP
F80040
F801C0
F807C0
F80FC0
F83FC0
F8FFC0
F9FFC0
FFFFC0
FFFFC0
FFFFC0
FFFFC0
FFFFC0
FFFFC0
FBFFC0
F9FFC0
F87FC0
F81FC0
F80FC0
F803C0
F801C0
F80040
ENDCHAR
STARTCHAR 0048
ENCODING 72
SWIDTH 1008 0
DWIDTH 21 0
BBX 20 19 0 -3
BITMAP
000810
001830
0078F0
00F9F0
01FBF0
07EFF0
0FDFF0
1FBFF0
7FFFF0
FEFFF0
3F7FF0
1FBFF0
0FEFF0
03F7F0
01FBF0
00F8F0
003870
001830
000810
ENDCHAR
STARTCHAR 0049
ENCODING 73
SWIDTH 1008 0
DWIDTH 21 0
BBX 20 20 0 -3
BITMAP
C80000
CC0000
CE0000
CE8000
CEE000
CEF000
CEFC00
CEFF00
CEFF80
CEFFE0
CEFFF0
CEFFC0
CEFF80
CEFE00
CEF800
CEF000
CEC000
CE8000
CE0000
C80000
ENDCHAR
STARTCHAR 004A
ENCODING 74
SWIDTH 1008 0
DWIDTH 21 0
BBX 20 20 0 -3
BITMAP
002000
006000
007000
00F800
01F800
03FC00
03FE00
07FF00
0FFF00
1FFF80
1FFFC0
3FFFE0
7FFFE0
FFFFF0
000000
FFFFF0
FFFFF0
FFFFF0
FFFFF0
FFFFF0
ENDCHAR
STARTCHAR 004B
ENCODING 75
SWIDTH 1008 0
DWIDTH 21 0
BBX 20 21 0 -4
BITMAP
0000C0
0001C0
0001C0
000380
000380
000700
3FFF00
7FFE00
FFFF00
0FFF00
007F80
003F80
0077C0
00E3C0
00E1E0
07C0F0
0FC0F0
07C070
00C020
004000
004000
ENDCHAR
STARTCHAR 004C
ENCODING 76
SWIDTH 1008 0
DWIDTH 21 0
BBX 17 21 2 -4
BITMAP
000400
000400
0FFE00
3FFE00
7FFE00
407F00
807F00
007F80
00FC00
000000
000000
008000
FF0000
FE0000
FE0080
7F0700
7FFE00
3FFC00
33F000
300000
100000
ENDCHAR
STARTCHAR 004D
ENCODING 77
SWIDTH 1008 0
DWIDTH 21 0
BBX 20 17 0 -2
BITMAP
07F000
1FFC00
3E3E00
380F00
700700
600380
E01380
E00FF0
E007E0
E003C0
E00180
700100
700000
3C0800
1FF800
0FF800
03E000
ENDCHAR
STARTCHAR 004E
ENCODING 78
SWIDTH 1008 0
DWIDTH 21 0
BBX 20 15 0 -1
BITMAP
000060
0000F0
0001F0
0003F0
2007E0
700FC0
F81F80
7C3F00
3E7E00
1FFC00
0FF800
07F000
03E000
01C000
008000
ENDCHAR
STARTCHAR 004F
ENCODING 79
SWIDTH 1008 0
DWIDTH 21 0
BBX 20 20 0 -3
BITMAP
780000
FF8000
FFE000
7FF000
03FC00
00FE00
783F00
FF1F80
FF8780
7FE7C0
07E3C0
01F1E0
00F9E0
0078F0
7C3CF0
7E3CF0
FE3CF0
FE1C70
7E1C70
7C1C70
ENDCHAR
STARTCHAR 0050
ENCODING 80
SWIDTH 1008 0
DWIDTH 21 0
BBX 19 21 1 -4
BITMAP
03F800
0FFC00
1FFE00
1E0F00
3C0700
380780
380380
780380
780380
FFFFE0
FFFFE0
FFFFE0
FF3FE0
FF1FE0
FF3FE0
FF3FE0
FF3FE0
FF3FE0
FFFFE0
FFFFE0
FFFFE0
ENDCHAR
STARTCHAR 0051
ENCODING 81
SWIDTH 1008 0
DWIDTH 21 0
BBX 20 20 0 -3
BITMAP
0FFF00
0FFF00
0FFF00
0FFF00
0FFF00
0FFF00
0FFF00
0FFF00
002000
002000
002000
0FFF80
080080
FF8FF0
FF8FF0
FF8FF0
FF8FF0
FF8FF0
FF8FF0
FF8FF0
ENDCHAR
STARTCHAR 0052
ENCODING 82
SWIDTH 1008 0
DWIDTH 21 0
BBX 20 12 0 1
BITMAP
008000
00C000
0FE700
3FFFC0
7FF7E0
70E070
E08030
E00030
E00030
700070
7FFFE0
3FFFC0
ENDCHAR
STARTCHAR 0053
ENCODING 83
SWIDTH 1008 0
DWIDTH 21 0
BBX 20 17 0 -2
BITMAP
000600
000F00
001F80
FFBFC0
FF7FE0
FEFFF0
F0EF70
EF3FD0
FFFFF0
DFFFF0
DFFFF0
DFFFE0
FFFFE0
BFF0E0
BFFFC0
7FFFC0
3FFFC0
ENDCHAR
STARTCHAR 0054
ENCODING 84
SWIDTH 1008 0
DWIDTH 21 0
BBX 20 20 0 -3
BITMAP
00F000
07FE00
0FFF80
1F0FC0
3C03C0
7E01E0
7700F0
738070
E1C070
E0E070
E07070
E03870
E01C70
700E70
7807E0
3803E0
3E03C0
1FFF80
0FFF00
03FC00
ENDCHAR
STARTCHAR 0055
ENCODING 85
SWIDTH 1008 0
DWIDTH 21 0
BBX 20 18 0 -2
BITMAP
002000
006000
00E000
01E000
03E000
03E000
FFE000
FFE000
FFE7F0
FFE7F0
FFE000
FFE000
FFE000
03E000
01E000
00E000
006000
002000
ENDCHAR
STARTCHAR 0056
ENCODING 86
SWIDTH 1008 0
DWIDTH 21 0
BBX 20 19 0 -3
BITMAP
002000
007000
00F000
00F000
01F000
03F000
FFF1C0
FFF1C0
FFF7F0
FFF7F0
FFF7F0
FFF1C0
FFF1C0
03F000
01F000
00F000
007000
003000
002000
ENDCHAR
STARTCHAR 0057
ENCODING 87
SWIDTH 1008 0
DWIDTH 21 0
BBX 20 19 0 -2
BITMAP
3F07E0
7F9FF0
FFDFF0
FFFFF0
FFFFF0
FFFFF0
7FFFF0
7FFFE0
3FFFC0
1FFFC0
0FFF80
07FF00
03FE00
01FC00
00F800
007000
002000
002000
002000
ENDCHAR
STARTCHAR 0058
ENCODING 88
SWIDTH 1008 0
DWIDTH 21 0
BBX 17 21 2 -4
BITMAP
0C0000
0C0000
0C0000
0C0000
0C0000
0C0000
0D8000
0D9900
4D9B80
CFFF80
CFFF80
CFFF80
CFFF80
FFFF80
FFFF80
FFFF80
7FFF80
3FFF80
3FFF80
1FFF80
0FFF00
ENDCHAR
STARTCHAR 0059
ENCODING 89
SWIDTH 1008 0
DWIDTH 21 0
BBX 15 21 3 -4
BITMAP
0300
0300
1B70
1B70
1B76
1B76
1B76
1B76
1B76
1B76
DFFE
DFFE
DFFE
DFFE
FFFE
FFFE
FFFE
7FFE
3FFE
3FFE
1FFC
ENDCHAR
STARTCHAR 005A
ENCODING 90
SWIDTH 1008 0
DWIDTH 21 0
BBX 20 21 0 -4
BITMAP
0000C0
001040
003060
007260
00F330
01F330
03F130
FFF1B0
FFF1B0
FFF1B0
FFF1B0
FFF1B0
FFF1B0
FFF130
FFF330
01F330
00F360
00F260
007060
0030C0
001000
ENDCHAR
STARTCHAR 005B
ENCODING 91
SWIDTH 960 0
DWIDTH 20 0
BBX 20 20 0 -3
BITMAP
800000
E00000
F80000
FE0000
FF8000
FFE000
FFF800
FFFE00
FFFF80
FFFFE0
FFFFF0
FFFFC0
FFFF00
FFFC00
FFF000
FFC000
FF0000
FC0000
F00000
C00000
ENDCHAR
STARTCHAR 005C
ENCODING 92
SWIDTH 960 0
DWIDTH 20 0
BBX 20 20 0 -3
BITMAP
FFFFF0
7FFFF0
7FFFE0
3FFFE0
3FFFC0
1FFFC0
1FFF80
0FFF80
0FFF00
07FF00
07FE00
03FE00
03FC00
01FC00
01F800
00F800
00F000
007000
006000
002000
ENDCHAR
STARTCHAR 005D
ENCODING 93
SWIDTH 1008 0
DWIDTH 21 0
BBX 20 20 0 -3
BITMAP
000010
000030
0000F0
0003F0
000FF0
003FF0
00FFF0
03FFF0
0FFFF0
3FFFF0
FFFFF0
3FFFF0
0FFFF0
03FFF0
00FFF0
003FF0
000FF0
0003F0
0000F0
000030
ENDCHAR
STARTCHAR 005E
ENCODING 94
SWIDTH 1008 0
DWIDTH 21 0
BBX 20 7 0 3
BITMAP
100040
200040
7FFFE0
FFFFF0
600020
200040
100040
ENDCHAR
STARTCHAR 005F
ENCODING 95
SWIDTH 1008 0
DWIDTH 21 0
BBX 8 21 6 -4
BITMAP
18
3C
7E
99
18
18
18
18
18
18
18
18
18
18
18
18
18
D9
3E
1C
08
ENDCHAR
STARTCHAR 0060
ENCODING 96
SWIDTH 960 0
DWIDTH 20 0
BBX 8 21 6 -4
BITMAP
18
18
18
18
18
18
18
18
18
18
18
18
18
18
18
18
18
D9
3E
1C
08
ENDCHAR
STARTCHAR 0061
ENCODING 97
SWIDTH 1008 0
DWIDTH 21 0
BBX 20 11 0 1
BITMAP
000040
03F0C0
0FFCC0
1FFFC0
3FFFE0
387FE0
601FE0
801FE0
801FF0
003FF0
00FFF0
ENDCHAR
STARTCHAR 0062
ENCODING 98
SWIDTH 1008 0
DWIDTH 21 0
BBX 20 11 0 1
BITMAP
100000
107E00
1BFF00
3FFF80
3FFFC0
3FE1E0
3F8020
7F8010
7FC010
7FE000
FFF000
ENDCHAR
STARTCHAR 0063
ENCODING 99
SWIDTH 960 0
DWIDTH 20 0
BBX 20 21 0 -4
BITMAP
00F800
00F800
00F800
00F800
00F800
00F800
00F800
00F800
00F800
00F800
F0F8F0
FCFBF0
7FFFF0
7FFFE0
3FFFC0
1FFF80
0FFF00
07FE00
03FC00
01F800
00F000
ENDCHAR
STARTCHAR 0064
ENCODING 100
SWIDTH 1008 0
DWIDTH 21 0
BBX 20 20 0 -3
BITMAP
0001C0
0003E0
7007F0
F00FF0
F81FF0
F83FE0
FC7FC0
FCFF80
FDFF00
FFFE00
FFFC00
FFF800
FFF000
FFE000
FFF800
FFFF00
FFFFC0
FFFFC0
FFFFC0
7FFF80
ENDCHAR
STARTCHAR 0065
ENCODING 101
SWIDTH 1008 0
DWIDTH 21 0
BBX 20 20 0 -3
BITMAP
380000
7C0000
7E0060
FF00F0
7F80F0
3FC1F0
1FE1F0
0FF1F0
07FBF0
03FFF0
01FFF0
00FFF0
007FF0
003FF0
00FFF0
07FFF0
1FFFF0
3FFFF0
3FFFF0
1FFFE0
ENDCHAR
STARTCHAR 0066
ENCODING 102
SWIDTH 960 0
DWIDTH 20 0
BBX 20 19 0 -3
BITMAP
00E000
01E000
03E000
07E000
0FC000
1FC000
3F8000
7FFFE0
FFFFF0
FFFFF0
FFFFF0
7FFFF0
3F8000
1FC000
0FC000
07E000
03E000
01E000
00E000
ENDCHAR
STARTCHAR 0067
ENCODING 103
SWIDTH 1008 0
DWIDTH 21 0
BBX 20 19 0 -3
BITMAP
003000
007800
003C00
003E00
001F00
001F80
000FC0
7FFFE0
FFFFF0
FFFFF0
FFFFF0
7FFFE0
001FC0
001F80
003F00
003E00
007C00
007800
003000
ENDCHAR
STARTCHAR 0068
ENCODING 104
SWIDTH 1008 0
DWIDTH 21 0
BBX 20 21 0 -4
BITMAP
00F000
01F800
03FC00
07FE00
0FFF00
1FFF80
3FFFC0
7FFFE0
7FFFF0
FCFBF0
F0F8F0
00F800
00F800
00F800
00F800
00F800
00F800
00F800
00F800
00F800
00F800
ENDCHAR
STARTCHAR 0069
ENCODING 105
SWIDTH 960 0
DWIDTH 20 0
BBX 20 21 0 -4
BITMAP
7FFF80
FFFFC0
FFFFE0
FFFFC0
FFFF00
FFFC00
FFE000
FFE000
FFF000
FFF800
FFFC00
FDFE00
FCFF00
FC7F80
F83FC0
F81FE0
F80FF0
7007F0
2003F0
0001E0
000080
ENDCHAR
STARTCHAR 006A
ENCODING 106
SWIDTH 1008 0
DWIDTH 21 0
BBX 20 21 0 -4
BITMAP
1FFFE0
3FFFF0
3FFFF0
3FFFF0
0FFFF0
01FFF0
003FF0
007FF0
00FFF0
01FFF0
03FFF0
07FBF0
0FF1F0
1FE1F0
3FC1F0
7F80F0
FF00F0
FE0070
7C0000
380000
100000
ENDCHAR
STARTCHAR 006B
ENCODING 107
SWIDTH 960 0
DWIDTH 20 0
BBX 20 17 0 -2
BITMAP
001000
001800
001C00
001E00
03FF00
0FFF80
3FFFC0
3FFFE0
7FFFF0
7C3FE0
F03F80
E03E00
C03C00
C03000
804000
800000
800000
ENDCHAR
STARTCHAR 006C
ENCODING 108
SWIDTH 1104 0
DWIDTH 23 0
BBX 23 19 0 -3
BITMAP
004000
00C000
01C000
03C000
07FC00
0FFF80
1FFFE0
3FFFF0
7FFFF8
FFFFF8
3FE1FC
1FE07C
07F01C
01F00C
00700C
003004
000804
000002
000002
ENDCHAR
STARTCHAR 006D
ENCODING 109
SWIDTH 960 0
DWIDTH 20 0
BBX 18 21 1 -4
BITMAP
07F800
07F800
07F800
07F800
07F800
07F800
07F800
07F800
07F800
07F800
07F800
FFFFC0
7FFF80
3FFF00
1FFE00
0FFC00
07FC00
03F800
01F000
00E000
004000
ENDCHAR
STARTCHAR 006E
ENCODING 110
SWIDTH 1008 0
DWIDTH 21 0
BBX 20 17 0 -2
BITMAP
008000
018000
038000
078000
0F8000
1FFFF0
3FFFF0
7FFFF0
FFFFF0
7FFFF0
1FFFF0
0FFFF0
078000
038000
018000
008000
004000
ENDCHAR
STARTCHAR 006F
ENCODING 111
SWIDTH 1008 0
DWIDTH 21 0
BBX 20 17 0 -2
BITMAP
001000
001800
001C00
001E00
001F00
FFFF80
FFFFC0
FFFFE0
FFFFF0
FFFFE0
FFFFC0
FFFF80
001F00
001E00
001C00
001800
001000
ENDCHAR
STARTCHAR 0070
ENCODING 112
SWIDTH 1008 0
DWIDTH 21 0
BBX 18 21 1 -4
BITMAP
00C000
00E000
01F000
03F800
07FC00
0FFE00
1FFF00
3FFF80
7FFFC0
83F800
03F800
03F800
03F800
03F800
03F800
03F800
03F800
03F800
03F800
03F800
03F800
ENDCHAR
STARTCHAR 0071
ENCODING 113
SWIDTH 1008 0
DWIDTH 21 0
BBX 18 21 1 -4
BITMAP
000800
000C00
001C00
003E00
003E00
F07F00
F07F80
F0FF80
F0FFC0
F1FFC0
F01C00
F01C00
F01C00
F01C00
F01C00
F01C00
703C00
7CF800
3FF800
1FF000
0FC000
ENDCHAR
STARTCHAR 0072
ENCODING 114
SWIDTH 1008 0
DWIDTH 21 0
BBX 20 17 0 -2
BITMAP
00C000
03C000
07C000
1FC000
7FFF80
FFFFC0
3FFFE0
0FC0F0
03C070
00C070
004070
000070
0000F0
0001F0
03FFE0
03FFC0
03FF00
ENDCHAR
STARTCHAR 0073
ENCODING 115
SWIDTH 1008 0
DWIDTH 21 0
BBX 20 15 0 -1
BITMAP
07FE00
1FFF80
3FFFE0
7FFFE0
FFFFF0
FFFFF0
FFFFF0
FFFFF0
7FFFF0
7FFFE0
3FFFC0
0FFF00
03FC00
01C000
078000
ENDCHAR
STARTCHAR 0074
ENCODING 116
SWIDTH 1008 0
DWIDTH 21 0
BBX 20 17 0 -2
BITMAP
FFFFF0
FFFFF0
FFFFF0
FFFFF0
FFFFF0
FFFFF0
FFFFF0
FFFFF0
FFFFF0
FFFFF0
FFFFF0
FFFFF0
FFFFF0
00E000
00C000
008000
010000
ENDCHAR
STARTCHAR 0075
ENCODING 117
SWIDTH 1008 0
DWIDTH 21 0
BBX 20 16 0 -1
BITMAP
007000
07FF00
1FFFC0
3FFFE0
7FFFF0
FFFFF0
FFFFF0
FFFFF0
FFFFF0
7FFFF0
7FFFE0
3FFFC0
0FFF80
01FC00
001800
000E00
ENDCHAR
STARTCHAR 0076
ENCODING 118
SWIDTH 1008 0
DWIDTH 21 0
BBX 20 17 0 -2
BITMAP
FFFFF0
FFFFF0
FFFFF0
FFFFF0
FFFFF0
FFFFF0
FFFFF0
FFFFF0
FFFFF0
FFFFF0
FFFFF0
FFFFF0
FFFFF0
003000
001000
000800
000400
ENDCHAR
STARTCHAR 0077
ENCODING 119
SWIDTH 1008 0
DWIDTH 21 0
BBX 20 20 0 -3
BITMAP
006000
00F000
00F000
1DFBC0
1FFFC0
1FFFC0
0FFF80
1F8F80
7F07E0
FE07F0
FE07F0
7E07F0
1F0780
0F9F00
1FFF80
1FFFC0
1FFBC0
1CF180
00F000
007000
ENDCHAR
STARTCHAR 0078
ENCODING 120
SWIDTH 1008 0
DWIDTH 21 0
BBX 20 17 0 -2
BITMAP
2C0000
3D0000
FF0000
E21800
2719C0
FF1FC0
1FFF80
15FFF0
00F1F0
00E0F0
01E0C0
01F1E0
01FFF0
003F70
007F00
003300
000300
ENDCHAR
STARTCHAR 0079
ENCODING 121
SWIDTH 1008 0
DWIDTH 21 0
BBX 20 18 0 -2
BITMAP
018000
07F3E0
0F8BC0
1F0390
1F87F0
7FC7E0
F1CF80
70FFC0
207C00
007C00
00FE00
03EF00
07C780
0F83C0
1F01E0
3E01F0
7C00F0
380060
ENDCHAR
STARTCHAR 007A
ENCODING 122
SWIDTH 1008 0
DWIDTH 21 0
BBX 20 20 0 -3
BITMAP
000800
001000
003000
007000
007000
006000
006000
006000
00E030
3CE7E0
7EFFC0
E7FE00
E7E000
FFC000
7BE000
036000
033000
076000
03E000
03C000
ENDCHAR
STARTCHAR 007B
ENCODING 123
SWIDTH 1008 0
DWIDTH 21 0
BBX 20 19 0 -3
BITMAP
000780
000380
0002C0
000060
000060
000030
000030
000030
000010
C00010
C00030
400030
600030
600060
3000E0
1801C0
0E0780
07FE00
00F800
ENDCHAR
STARTCHAR 007C
ENCODING 124
SWIDTH 960 0
DWIDTH 20 0
BBX 20 19 0 -3
BITMAP
1E0000
1C0000
3C0000
300000
600000
600000
C00000
C00000
C00000
C00010
C00030
400030
600030
600060
3000E0
1801C0
0E0780
07FE00
01F800
ENDCHAR
STARTCHAR 007D
ENCODING 125
SWIDTH 480 0
DWIDTH 10 0
BBX 0 0 0 0
BITMAP
ENDCHAR
STARTCHAR 007E
ENCODING 126
SWIDTH 480 0
DWIDTH 10 0
BBX 0 0 0 0
BITMAP
ENDCHAR
STARTCHAR 00A0
ENCODING 160
SWIDTH 240 0
DWIDTH 5 0
BBX 0 0 0 0
BITMAP
ENDCHAR
STARTCHAR 00A1
ENCODING 161
SWIDTH 336 0
DWIDTH 7 0
BBX 0 0 0 0
BITMAP
ENDCHAR
STARTCHAR 00A2
ENCODING 162
SWIDTH 576 0
DWIDTH 12 0
BBX 0 0 0 0
BITMAP
ENDCHAR
STARTCHAR 00A3
ENCODING 163
SWIDTH 480 0
DWIDTH 10 0
BBX 0 0 0 0
BITMAP
ENDCHAR
STARTCHAR 00A4
ENCODING 164
SWIDTH 480 0
DWIDTH 10 0
BBX 0 0 0 0
BITMAP
ENDCHAR
STARTCHAR 00A5
ENCODING 165
SWIDTH 624 0
DWIDTH 13 0
BBX 0 0 0 0
BITMAP
ENDCHAR
STARTCHAR 00A6
ENCODING 166
SWIDTH 480 0
DWIDTH 10 0
BBX 0 0 0 0
BITMAP
ENDCHAR
STARTCHAR 00A7
ENCODING 167
SWIDTH 480 0
DWIDTH 10 0
BBX 0 0 0 0
BITMAP
ENDCHAR
STARTCHAR 00A8
ENCODING 168
SWIDTH 528 0
DWIDTH 11 0
BBX 0 0 0 0
BITMAP
ENDCHAR
STARTCHAR 00A9
ENCODING 169
SWIDTH 816 0
DWIDTH 17 0
BBX 0 0 0 0
BITMAP
ENDCHAR
STARTCHAR 00AA
ENCODING 170
SWIDTH 336 0
DWIDTH 7 0
BBX 0 0 0 0
BITMAP
ENDCHAR
STARTCHAR 00AB
ENCODING 171
SWIDTH 480 0
DWIDTH 10 0
BBX 0 0 0 0
BITMAP
ENDCHAR
STARTCHAR 00AC
ENCODING 172
SWIDTH 480 0
DWIDTH 10 0
BBX 0 0 0 0
BITMAP
ENDCHAR
STARTCHAR 00AD
ENCODING 173
SWIDTH 1008 0
DWIDTH 21 0
BBX 20 20 0 -3
BITMAP
00F800
07FE00
0C0380
1800C0
380460
640C20
421C30
413C10
C3FC10
83FC10
83FC10
C3FC10
C3FC10
401C30
400E20
200560
3004C0
180180
0E0300
03FC00
ENDCHAR
STARTCHAR 00AE
ENCODING 174
SWIDTH 816 0
DWIDTH 17 0
BBX 0 0 0 0
BITMAP
ENDCHAR
STARTCHAR 00AF
ENCODING 175
SWIDTH 336 0
DWIDTH 7 0
BBX 0 0 0 0
BITMAP
ENDCHAR
STARTCHAR 00B0
ENCODING 176
SWIDTH 336 0
DWIDTH 7 0
BBX 0 0 0 0
BITMAP
ENDCHAR
STARTCHAR 00B1
ENCODING 177
SWIDTH 480 0
DWIDTH 10 0
BBX 0 0 0 0
BITMAP
ENDCHAR
STARTCHAR 00B2
ENCODING 178
SWIDTH 480 0
DWIDTH 10 0
BBX 0 0 0 0
BITMAP
ENDCHAR
STARTCHAR 00B3
ENCODING 179
SWIDTH 480 0
DWIDTH 10 0
BBX 0 0 0 0
BITMAP
ENDCHAR
STARTCHAR 00B4
ENCODING 180
SWIDTH 528 0
DWIDTH 11 0
BBX 0 0 0 0
BITMAP
ENDCHAR
STARTCHAR 00B5
ENCODING 181
SWIDTH 576 0
DWIDTH 12 0
BBX 0 0 0 0
BITMAP
ENDCHAR
STARTCHAR 00B6
ENCODING 182
SWIDTH 528 0
DWIDTH 11 0
BBX 0 0 0 0
BITMAP
ENDCHAR
STARTCHAR 00B7
ENCODING 183
SWIDTH 240 0
DWIDTH 5 0
BBX 0 0 0 0
BITMAP
ENDCHAR
STARTCHAR 00B8
ENCODING 184
SWIDTH 528 0
DWIDTH 11 0
BBX 0 0 0 0
BITMAP
ENDCHAR
STARTCHAR 00B9
ENCODING 185
SWIDTH 480 0
DWIDTH 10 0
BBX 0 0 0 0
BITMAP
ENDCHAR
STARTCHAR 00BA
ENCODING 186
SWIDTH 336 0
DWIDTH 7 0
BBX 0 0 0 0
BITMAP
ENDCHAR
STARTCHAR 00BB
ENCODING 187
SWIDTH 480 0
DWIDTH 10 0
BBX 0 0 0 0
BITMAP
ENDCHAR
STARTCHAR 00BC
ENCODING 188
SWIDTH 864 0
DWIDTH 18 0
BBX 0 0 0 0
BITMAP
ENDCHAR
STARTCHAR 00BD
ENCODING 189
SWIDTH 960 0
DWIDTH 20 0
BBX 0 0 0 0
BITMAP
ENDCHAR
STARTCHAR 00BE
ENCODING 190
SWIDTH 864 0
DWIDTH 18 0
BBX 0 0 0 0
BITMAP
ENDCHAR
STARTCHAR 00BF
ENCODING 191
SWIDTH 384 0
DWIDTH 8 0
BBX 0 0 0 0
BITMAP
ENDCHAR
STARTCHAR 00C0
ENCODING 192
SWIDTH 768 0
DWIDTH 16 0
BBX 0 0 0 0
BITMAP
ENDCHAR
STARTCHAR 00C1
ENCODING 193
SWIDTH 768 0
DWIDTH 16 0
BBX 0 0 0 0
BITMAP
ENDCHAR
STARTCHAR 00C2
ENCODING 194
SWIDTH 768 0
DWIDTH 16 0
BBX 0 0 0 0
BITMAP
ENDCHAR
STARTCHAR 00C3
ENCODING 195
SWIDTH 768 0
DWIDTH 16 0
BBX 0 0 0 0
BITMAP
ENDCHAR
STARTCHAR 00C4
ENCODING 196
SWIDTH 768 0
DWIDTH 16 0
BBX 0 0 0 0
BITMAP
ENDCHAR
STARTCHAR 00C5
ENCODING 197
SWIDTH 768 0
DWIDTH 16 0
BBX 0 0 0 0
BITMAP
ENDCHAR
STARTCHAR 00C6
ENCODING 198
SWIDTH 1056 0
DWIDTH 22 0
BBX 0 0 0 0
BITMAP
ENDCHAR
STARTCHAR 00C7
ENCODING 199
SWIDTH 672 0
DWIDTH 14 0
BBX 0 0 0 0
BITMAP
ENDCHAR
STARTCHAR 00C8
ENCODING 200
SWIDTH 576 0
DWIDTH 12 0
BBX 0 0 0 0
BITMAP
ENDCHAR
STARTCHAR 00C9
ENCODING 201
SWIDTH 576 0
DWIDTH 12 0
BBX 0 0 0 0
BITMAP
ENDCHAR
STARTCHAR 00CA
ENCODING 202
SWIDTH 576 0
DWIDTH 12 0
BBX 0 0 0 0
BITMAP
ENDCHAR
STARTCHAR 00CB
ENCODING 203
SWIDTH 576 0
DWIDTH 12 0
BBX 0 0 0 0
BITMAP
ENDCHAR
STARTCHAR 00CC
ENCODING 204
SWIDTH 336 0
DWIDTH 7 0
BBX 0 0 0 0
BITMAP
ENDCHAR
STARTCHAR 00CD
ENCODING 205
SWIDTH 336 0
DWIDTH 7 0
BBX 0 0 0 0
BITMAP
ENDCHAR
STARTCHAR 00CE
ENCODING 206
SWIDTH 336 0
DWIDTH 7 0
BBX 0 0 0 0
BITMAP
ENDCHAR
STARTCHAR 00CF
ENCODING 207
SWIDTH 336 0
DWIDTH 7 0
BBX 0 0 0 0
BITMAP
ENDCHAR
STARTCHAR 00D0
ENCODING 208
SWIDTH 768 0
DWIDTH 16 0
BBX 0 0 0 0
BITMAP
ENDCHAR
STARTCHAR 00D1
ENCODING 209
SWIDTH 768 0
DWIDTH 16 0
BBX 0 0 0 0
BITMAP
ENDCHAR
STARTCHAR 00D2
ENCODING 210
SWIDTH 816 0
DWIDTH 17 0
BBX 0 0 0 0
BITMAP
ENDCHAR
STARTCHAR 00D3
ENCODING 211
SWIDTH 816 0
DWIDTH 17 0
BBX 0 0 0 0
BITMAP
ENDCHAR
STARTCHAR 00D4
ENCODING 212
SWIDTH 816 0
DWIDTH 17 0
BBX 0 0 0 0
BITMAP
ENDCHAR
STARTCHAR 00D5
ENCODING 213
SWIDTH 816 0
DWIDTH 17 0
BBX 0 0 0 0
BITMAP
ENDCHAR
STARTCHAR 00D6
ENCODING 214
SWIDTH 816 0
DWIDTH 17 0
BBX 0 0 0 0
BITMAP
ENDCHAR
STARTCHAR 00D7
ENCODING 215
SWIDTH 480 0
DWIDTH 10 0
BBX 0 0 0 0
BITMAP
ENDCHAR
STARTCHAR 00D8
ENCODING 216
SWIDTH 816 0
DWIDTH 17 0
BBX 0 0 0 0
BITMAP
ENDCHAR
STARTCHAR 00D9
ENCODING 217
SWIDTH 720 0
DWIDTH 15 0
BBX 0 0 0 0
BITMAP
ENDCHAR
STARTCHAR 00DA
ENCODING 218
SWIDTH 720 0
DWIDTH 15 0
BBX 0 0 0 0
BITMAP
ENDCHAR
STARTCHAR 00DB
ENCODING 219
SWIDTH 720 0
DWIDTH 15 0
BBX 0 0 0 0
BITMAP
ENDCHAR
STARTCHAR 00DC
ENCODING 220
SWIDTH 720 0
DWIDTH 15 0
BBX 0 0 0 0
BITMAP
ENDCHAR
STARTCHAR 00DD
ENCODING 221
SWIDTH 624 0
DWIDTH 13 0
BBX 0 0 0 0
BITMAP
ENDCHAR
STARTCHAR 00DE
ENCODING 222
SWIDTH 528 0
DWIDTH 11 0
BBX 0 0 0 0
BITMAP
ENDCHAR
STARTCHAR 00DF
ENCODING 223
SWIDTH 624 0
DWIDTH 13 0
BBX 0 0 0 0
BITMAP
ENDCHAR
STARTCHAR 00E0
ENCODING 224
SWIDTH 432 0
DWIDTH 9 0
BBX 0 0 0 0
BITMAP
ENDCHAR
STARTCHAR 00E1
ENCODING 225
SWIDTH 432 0
DWIDTH 9 0
BBX 0 0 0 0
BITMAP
ENDCHAR
STARTCHAR 00E2
ENCODING 226
SWIDTH 432 0
DWIDTH 9 0
BBX 0 0 0 0
BITMAP
ENDCHAR
STARTCHAR 00E3
ENCODING 227
SWIDTH 432 0
DWIDTH 9 0
BBX 0 0 0 0
BITMAP
ENDCHAR
STARTCHAR 00E4
ENCODING 228
SWIDTH 432 0
DWIDTH 9 0
BBX 0 0 0 0
BITMAP
ENDCHAR
STARTCHAR 00E5
ENCODING 229
SWIDTH 432 0
DWIDTH 9 0
BBX 0 0 0 0
BITMAP
ENDCHAR
STARTCHAR 00E6
ENCODING 230
SWIDTH 720 0
DWIDTH 15 0
BBX 0 0 0 0
BITMAP
ENDCHAR
STARTCHAR 00E7
ENCODING 231
SWIDTH 432 0
DWIDTH 9 0
BBX 0 0 0 0
BITMAP
ENDCHAR
STARTCHAR 00E8
ENCODING 232
SWIDTH 432 0
DWIDTH 9 0
BBX 0 0 0 0
BITMAP
ENDCHAR
STARTCHAR 00E9
ENCODING 233
SWIDTH 432 0
DWIDTH 9 0
BBX 0 0 0 0
BITMAP
ENDCHAR
STARTCHAR 00EA
ENCODING 234
SWIDTH 432 0
DWIDTH 9 0
BBX 0 0 0 0
BITMAP
ENDCHAR
STARTCHAR 00EB
ENCODING 235
SWIDTH 432 0
DWIDTH 9 0
BBX 0 0 0 0
BITMAP
ENDCHAR
STARTCHAR 00EC
ENCODING 236
SWIDTH 240 0
DWIDTH 5 0
BBX 0 0 0 0
BITMAP
ENDCHAR
STARTCHAR 00ED
ENCODING 237
SWIDTH 240 0
DWIDTH 5 0
BBX 0 0 0 0
BITMAP
ENDCHAR
STARTCHAR 00EE
ENCODING 238
SWIDTH 240 0
DWIDTH 5 0
BBX 0 0 0 0
BITMAP
ENDCHAR
STARTCHAR 00EF
ENCODING 239
SWIDTH 240 0
DWIDTH 5 0
BBX 0 0 0 0
BITMAP
ENDCHAR
STARTCHAR 00F0
ENCODING 240
SWIDTH 576 0
DWIDTH 12 0
BBX 0 0 0 0
BITMAP
ENDCHAR
STARTCHAR 00F1
ENCODING 241
SWIDTH 528 0
DWIDTH 11 0
BBX 0 0 0 0
BITMAP
ENDCHAR
STARTCHAR 00F2
ENCODING 242
SWIDTH 480 0
DWIDTH 10 0
BBX 0 0 0 0
BITMAP
ENDCHAR
STARTCHAR 00F3
ENCODING 243
SWIDTH 480 0
DWIDTH 10 0
BBX 0 0 0 0
BITMAP
ENDCHAR
STARTCHAR 00F4
ENCODING 244
SWIDTH 480 0
DWIDTH 10 0
BBX 0 0 0 0
BITMAP
ENDCHAR
STARTCHAR 00F5
ENCODING 245
SWIDTH 480 0
DWIDTH 10 0
BBX 0 0 0 0
BITMAP
ENDCHAR
STARTCHAR 00F6
ENCODING 246
SWIDTH 480 0
DWIDTH 10 0
BBX 0 0 0 0
BITMAP
ENDCHAR
STARTCHAR 00F7
ENCODING 247
SWIDTH 480 0
DWIDTH 10 0
BBX 0 0 0 0
BITMAP
ENDCHAR
STARTCHAR 00F8
ENCODING 248
SWIDTH 480 0
DWIDTH 10 0
BBX 0 0 0 0
BITMAP
ENDCHAR
STARTCHAR 00F9
ENCODING 249
SWIDTH 528 0
DWIDTH 11 0
BBX 0 0 0 0
BITMAP
ENDCHAR
STARTCHAR 00FA
ENCODING 250
SWIDTH 528 0
DWIDTH 11 0
BBX 0 0 0 0
BITMAP
ENDCHAR
STARTCHAR 00FB
ENCODING 251
SWIDTH 528 0
DWIDTH 11 0
BBX 0 0 0 0
BITMAP
ENDCHAR
STARTCHAR 00FC
ENCODING 252
SWIDTH 528 0
DWIDTH 11 0
BBX 0 0 0 0
BITMAP
ENDCHAR
STARTCHAR 00FD
ENCODING 253
SWIDTH 432 0
DWIDTH 9 0
BBX 0 0 0 0
BITMAP
ENDCHAR
STARTCHAR 00FE
ENCODING 254
SWIDTH 480 0
DWIDTH 10 0
BBX 0 0 0 0
BITMAP
ENDCHAR
STARTCHAR 00FF
ENCODING 255
SWIDTH 432 0
DWIDTH 9 0
BBX 0 0 0 0
BITMAP
ENDCHAR
STARTCHAR 0131
ENCODING 305
SWIDTH 240 0
DWIDTH 5 0
BBX 0 0 0 0
BITMAP
ENDCHAR
STARTCHAR 02C6
ENCODING 710
SWIDTH 528 0
DWIDTH 11 0
BBX 0 0 0 0
BITMAP
ENDCHAR
STARTCHAR 02C7
ENCODING 711
SWIDTH 528 0
DWIDTH 11 0
BBX 0 0 0 0
BITMAP
ENDCHAR
STARTCHAR 02C9
ENCODING 713
SWIDTH 528 0
DWIDTH 11 0
BBX 0 0 0 0
BITMAP
ENDCHAR
STARTCHAR 02D8
ENCODING 728
SWIDTH 528 0
DWIDTH 11 0
BBX 0 0 0 0
BITMAP
ENDCHAR
STARTCHAR 02D9
ENCODING 729
SWIDTH 528 0
DWIDTH 11 0
BBX 0 0 0 0
BITMAP
ENDCHAR
STARTCHAR 02DA
ENCODING 730
SWIDTH 528 0
DWIDTH 11 0
BBX 0 0 0 0
BITMAP
ENDCHAR
STARTCHAR 02DB
ENCODING 731
SWIDTH 528 0
DWIDTH 11 0
BBX 0 0 0 0
BITMAP
ENDCHAR
STARTCHAR 02DC
ENCODING 732
SWIDTH 528 0
DWIDTH 11 0
BBX 0 0 0 0
BITMAP
ENDCHAR
STARTCHAR 02DD
ENCODING 733
SWIDTH 528 0
DWIDTH 11 0
BBX 0 0 0 0
BITMAP
ENDCHAR
STARTCHAR 037E
ENCODING 894
SWIDTH 1008 0
DWIDTH 21 0
BBX 20 21 0 -4
BITMAP
002000
002000
002000
002000
002000
002000
002000
002000
002000
002000
FFFFF0
002000
002000
002000
002000
002000
002000
002000
002000
002000
002000
ENDCHAR
STARTCHAR 2013
ENCODING 8211
SWIDTH 528 0
DWIDTH 11 0
BBX 0 0 0 0
BITMAP
ENDCHAR
STARTCHAR 2014
ENCODING 8212
SWIDTH 1008 0
DWIDTH 21 0
BBX 0 0 0 0
BITMAP
ENDCHAR
STARTCHAR 2018
ENCODING 8216
SWIDTH 288 0
DWIDTH 6 0
BBX 0 0 0 0
BITMAP
ENDCHAR
STARTCHAR 2019
ENCODING 8217
SWIDTH 288 0
DWIDTH 6 0
BBX 0 0 0 0
BITMAP
ENDCHAR
STARTCHAR 201A
ENCODING 8218
SWIDTH 288 0
DWIDTH 6 0
BBX 0 0 0 0
BITMAP
ENDCHAR
STARTCHAR 201C
ENCODING 8220
SWIDTH 432 0
DWIDTH 9 0
BBX 0 0 0 0
BITMAP
ENDCHAR
STARTCHAR 201D
ENCODING 8221
SWIDTH 432 0
DWIDTH 9 0
BBX 0 0 0 0
BITMAP
ENDCHAR
STARTCHAR 201E
ENCODING 8222
SWIDTH 432 0
DWIDTH 9 0
BBX 0 0 0 0
BITMAP
ENDCHAR
STARTCHAR 2020
ENCODING 8224
SWIDTH 480 0
DWIDTH 10 0
BBX 0 0 0 0
BITMAP
ENDCHAR
STARTCHAR 2021
ENCODING 8225
SWIDTH 480 0
DWIDTH 10 0
BBX 0 0 0 0
BITMAP
ENDCHAR
STARTCHAR 2022
ENCODING 8226
SWIDTH 528 0
DWIDTH 11 0
BBX 0 0 0 0
BITMAP
ENDCHAR
STARTCHAR 2026
ENCODING 8230
SWIDTH 1008 0
DWIDTH 21 0
BBX 0 0 0 0
BITMAP
ENDCHAR
STARTCHAR 2039
ENCODING 8249
SWIDTH 288 0
DWIDTH 6 0
BBX 0 0 0 0
BITMAP
ENDCHAR
STARTCHAR 203A
ENCODING 8250
SWIDTH 288 0
DWIDTH 6 0
BBX 0 0 0 0
BITMAP
ENDCHAR
STARTCHAR 2044
ENCODING 8260
SWIDTH 192 0
DWIDTH 4 0
BBX 0 0 0 0
BITMAP
ENDCHAR
STARTCHAR 20A3
ENCODING 8355
SWIDTH 480 0
DWIDTH 10 0
BBX 0 0 0 0
BITMAP
ENDCHAR
STARTCHAR 20A4
ENCODING 8356
SWIDTH 480 0
DWIDTH 10 0
BBX 0 0 0 0
BITMAP
ENDCHAR
STARTCHAR 20A7
ENCODING 8359
SWIDTH 1008 0
DWIDTH 21 0
BBX 0 0 0 0
BITMAP
ENDCHAR
STARTCHAR 20AC
ENCODING 8364
SWIDTH 480 0
DWIDTH 10 0
BBX 0 0 0 0
BITMAP
ENDCHAR
STARTCHAR 2116
ENCODING 8470
SWIDTH 1104 0
DWIDTH 23 0
BBX 0 0 0 0
BITMAP
ENDCHAR
STARTCHAR 2122
ENCODING 8482
SWIDTH 720 0
DWIDTH 15 0
BBX 0 0 0 0
BITMAP
ENDCHAR
STARTCHAR 2202
ENCODING 8706
SWIDTH 480 0
DWIDTH 10 0
BBX 0 0 0 0
BITMAP
ENDCHAR
STARTCHAR 2206
ENCODING 8710
SWIDTH 528 0
DWIDTH 11 0
BBX 0 0 0 0
BITMAP
ENDCHAR
STARTCHAR 220F
ENCODING 8719
SWIDTH 768 0
DWIDTH 16 0
BBX 0 0 0 0
BITMAP
ENDCHAR
STARTCHAR 2211
ENCODING 8721
SWIDTH 576 0
DWIDTH 12 0
BBX 0 0 0 0
BITMAP
ENDCHAR
STARTCHAR 2212
ENCODING 8722
SWIDTH 480 0
DWIDTH 10 0
BBX 0 0 0 0
BITMAP
ENDCHAR
STARTCHAR 2215
ENCODING 8725
SWIDTH 192 0
DWIDTH 4 0
BBX 0 0 0 0
BITMAP
ENDCHAR
STARTCHAR 2219
ENCODING 8729
SWIDTH 240 0
DWIDTH 5 0
BBX 0 0 0 0
BITMAP
ENDCHAR
STARTCHAR 221A
ENCODING 8730
SWIDTH 480 0
DWIDTH 10 0
BBX 0 0 0 0
BITMAP
ENDCHAR
STARTCHAR 221E
ENCODING 8734
SWIDTH 480 0
DWIDTH 10 0
BBX 0 0 0 0
BITMAP
ENDCHAR
STARTCHAR 222B
ENCODING 8747
SWIDTH 336 0
DWIDTH 7 0
BBX 0 0 0 0
BITMAP
ENDCHAR
STARTCHAR 2248
ENCODING 8776
SWIDTH 480 0
DWIDTH 10 0
BBX 0 0 0 0
BITMAP
ENDCHAR
STARTCHAR 2264
ENCODING 8804
SWIDTH 480 0
DWIDTH 10 0
BBX 0 0 0 0
BITMAP
ENDCHAR
STARTCHAR 2265
ENCODING 8805
SWIDTH 480 0
DWIDTH 10 0
BBX 0 0 0 0
BITMAP
ENDCHAR
STARTCHAR F001
ENCODING 61441
SWIDTH 528 0
DWIDTH 11 0
BBX 0 0 0 0
BITMAP
ENDCHAR
STARTCHAR F002
ENCODING 61442
SWIDTH 528 0
DWIDTH 11 0
BBX 0 0 0 0
BITMAP
ENDCHAR
STARTCHAR FB01
ENCODING 64257
SWIDTH 528 0
DWIDTH 11 0
BBX 0 0 0 0
BITMAP
ENDCHAR
STARTCHAR FB02
ENCODING 64258
SWIDTH 528 0
DWIDTH 11 0
BBX 0 0 0 0
BITMAP
ENDCHAR
ENDFONT
